<svg width="120" height="120" viewBox="0 0 120 120" fill="none" xmlns="http://www.w3.org/2000/svg">
<circle cx="59.5" cy="36.5" r="19.5" stroke="#5E5659" stroke-width="4"/>
<mask id="path-2-inside-1_17_725" fill="white">
<path d="M37 77.5C37 65.0736 47.0736 55 59.5 55V55C71.9264 55 82 65.0736 82 77.5V105H37V77.5Z"/>
</mask>
<path d="M33 77.5C33 62.8645 44.8645 51 59.5 51C74.1355 51 86 62.8645 86 77.5H78C78 67.2827 69.7173 59 59.5 59C49.2827 59 41 67.2827 41 77.5H33ZM82 105H37H82ZM33 105V77.5C33 62.8645 44.8645 51 59.5 51V59C49.2827 59 41 67.2827 41 77.5V105H33ZM59.5 51C74.1355 51 86 62.8645 86 77.5V105H78V77.5C78 67.2827 69.7173 59 59.5 59V51Z" fill="#5E5659" mask="url(#path-2-inside-1_17_725)"/>
</svg>
