<svg width="120" height="120" viewBox="0 0 120 120" fill="none" xmlns="http://www.w3.org/2000/svg">
<mask id="path-1-inside-1_17_732" fill="white">
<path d="M15 35C15 33.8954 15.8954 33 17 33H102C103.105 33 104 33.8954 104 35V85C104 86.1046 103.105 87 102 87H17C15.8954 87 15 86.1046 15 85V35Z"/>
</mask>
<path d="M11 35C11 31.6863 13.6863 29 17 29H102C105.314 29 108 31.6863 108 35L100 37H19L11 35ZM108 85C108 88.3137 105.314 91 102 91H17C13.6863 91 11 88.3137 11 85L19 83H100L108 85ZM17 91C13.6863 91 11 88.3137 11 85V35C11 31.6863 13.6863 29 17 29L19 37V83L17 91ZM102 29C105.314 29 108 31.6863 108 35V85C108 88.3137 105.314 91 102 91L100 83V37L102 29Z" fill="#5E5659" mask="url(#path-1-inside-1_17_732)"/>
<path d="M102.036 35.0729L58 62.6917" stroke="#5E5659" stroke-width="4"/>
<line y1="-2" x2="49.778" y2="-2" transform="matrix(0.840115 0.542408 -0.536927 0.843629 17.1445 37.32)" stroke="#5E5659" stroke-width="4"/>
</svg>
