<svg width="500" height="500" viewBox="0 0 500 500" fill="none" xmlns="http://www.w3.org/2000/svg">
<g clip-path="url(#clip0_9_704)">
<path d="M54.2191 462.8C47.3858 462.8 42.1925 460.75 38.6391 456.65C34.8125 452.823 32.8991 447.903 32.8991 441.89C32.8991 431.777 37.8191 420.707 47.6591 408.68C57.2258 396.653 69.5258 386.403 84.5591 377.93C88.3858 375.743 92.4858 373.693 96.8591 371.78C100.959 369.867 105.606 367.543 110.799 364.81C116.266 351.69 121.322 336.793 125.969 320.12C130.616 303.173 134.716 284.45 138.269 263.95C134.169 271.33 130.342 277.753 126.789 283.22C123.509 288.687 120.912 293.06 118.999 296.34L115.309 290.19C119.956 281.717 124.056 272.697 127.609 263.13C131.436 253.29 134.989 243.997 138.269 235.25C141.822 226.503 145.376 219.397 148.929 213.93C152.482 208.463 156.309 205.73 160.409 205.73C163.416 205.73 165.739 206.96 167.379 209.42C169.292 211.607 170.249 214.477 170.249 218.03C170.249 221.037 169.429 226.913 167.789 235.66C166.422 244.133 164.236 254.657 161.229 267.23C158.496 279.53 155.079 292.923 150.979 307.41C146.879 321.897 142.369 336.52 137.449 351.28C145.376 346.633 153.302 341.85 161.229 336.93C169.156 332.01 177.082 325.45 185.009 317.25C193.209 309.05 201.136 297.843 208.789 283.63L214.119 286.5C207.286 302.627 199.086 315.473 189.519 325.04C180.226 334.333 170.659 341.713 160.819 347.18C150.979 352.647 141.822 357.84 133.349 362.76C127.336 379.707 120.229 395.833 112.029 411.14C104.102 426.447 95.3558 438.883 85.7891 448.45C75.9491 458.017 65.4258 462.8 54.2191 462.8ZM50.5291 448.86C55.9958 448.86 63.9225 442.847 74.3091 430.82C84.4225 419.067 94.8091 401.437 105.469 377.93C84.6958 388.043 69.2525 398.567 59.1391 409.5C48.7525 420.433 43.5591 430.273 43.5591 439.02C43.5591 442.573 44.2425 445.033 45.6091 446.4C46.9758 448.04 48.6158 448.86 50.5291 448.86ZM166.969 168.83C162.596 168.83 158.769 167.737 155.489 165.55C152.209 163.363 150.569 160.083 150.569 155.71C150.569 151.61 152.072 147.92 155.079 144.64C158.359 141.36 162.322 138.763 166.969 136.85C171.616 134.937 176.126 133.98 180.499 133.98C184.326 133.98 187.469 134.937 189.929 136.85C192.662 138.763 194.029 141.633 194.029 145.46C194.029 151.473 191.159 156.94 185.419 161.86C179.952 166.507 173.802 168.83 166.969 168.83ZM225.096 360.3C220.45 360.3 215.666 359.07 210.746 356.61C206.1 354.423 202.273 350.733 199.266 345.54C195.986 340.347 194.346 333.787 194.346 325.86C194.346 316.84 196.533 306.727 200.906 295.52C205.28 284.313 211.156 273.243 218.536 262.31C225.916 251.103 234.39 240.853 243.956 231.56C253.523 221.993 263.5 214.477 273.886 209.01C284.273 203.27 294.523 200.4 304.636 200.4C310.376 200.4 314.75 201.493 317.756 203.68C321.036 205.593 322.676 208.737 322.676 213.11C322.676 214.203 322.54 215.16 322.266 215.98C322.266 216.8 322.13 217.757 321.856 218.85C320.49 216.663 318.44 215.16 315.706 214.34C313.246 213.247 310.103 212.7 306.276 212.7C297.53 212.7 288.92 215.433 280.446 220.9C272.246 226.093 264.593 233.063 257.486 241.81C250.653 250.283 244.64 259.44 239.446 269.28C234.253 279.12 230.153 288.687 227.146 297.98C224.413 307 223.046 314.653 223.046 320.94C223.046 326.953 224.413 331.737 227.146 335.29C229.88 338.843 233.433 340.62 237.806 340.62C245.186 340.62 254.07 335.973 264.456 326.68C275.116 317.387 285.913 304.267 296.846 287.32C307.78 270.373 317.62 250.557 326.366 227.87C332.38 212.017 338.53 195.89 344.816 179.49C351.376 163.09 357.936 147.373 364.496 132.34C371.056 117.033 377.343 103.503 383.356 91.75C389.643 79.7233 395.52 70.2933 400.986 63.46C406.726 56.3533 411.783 52.8 416.156 52.8C418.343 52.8 420.256 53.7567 421.896 55.67C423.536 57.31 424.356 59.4967 424.356 62.23C424.356 66.6033 422.033 74.12 417.386 84.78C413.013 95.1667 407.136 107.74 399.756 122.5C392.65 136.987 385.133 152.84 377.206 170.06C369.28 187.28 361.626 204.773 354.246 222.54C347.14 240.307 341.263 257.527 336.616 274.2C332.243 290.6 330.056 305.633 330.056 319.3C330.056 326.953 330.466 332.693 331.286 336.52C332.106 340.347 334.84 342.26 339.486 342.26C345.226 342.26 351.923 339.8 359.576 334.88C367.23 329.96 374.883 322.99 382.536 313.97C390.19 304.95 396.886 294.153 402.626 281.58L407.546 285.27C402.353 299.21 395.246 311.783 386.226 322.99C377.206 333.923 367.503 342.533 357.116 348.82C347.003 355.38 337.3 358.66 328.006 358.66C317.893 358.66 310.786 355.243 306.686 348.41C302.86 341.85 300.946 335.017 300.946 327.91C300.946 323.263 301.63 317.113 302.996 309.46C304.363 301.807 306.276 293.333 308.736 284.04C299.99 298.527 290.696 311.647 280.856 323.4C271.016 334.88 261.313 343.9 251.746 350.46C242.453 357.02 233.57 360.3 225.096 360.3ZM411.095 352.1C407.542 352.1 404.399 351.143 401.665 349.23C399.205 347.59 397.975 344.857 397.975 341.03C397.975 338.023 399.205 335.29 401.665 332.83C404.125 330.097 407.132 328.047 410.685 326.68C414.512 325.04 418.202 324.22 421.755 324.22C425.035 324.22 427.632 324.903 429.545 326.27C431.459 327.637 432.415 330.233 432.415 334.06C432.415 336.793 431.322 339.527 429.135 342.26C427.222 344.993 424.625 347.317 421.345 349.23C418.065 351.143 414.649 352.1 411.095 352.1Z" fill="#5E5659"/>
</g>
<defs>
<clipPath id="clip0_9_704">
<rect width="500" height="500" fill="white"/>
</clipPath>
</defs>
</svg>
